<svg width="102" height="32" viewBox="0 0 102 32" fill="none" xmlns="http://www.w3.org/2000/svg">
<path d="M9.0625 25.3438C9.54167 25.3438 10.0156 25.3021 10.4844 25.2188C10.9531 25.125 11.3802 25.0156 11.7656 24.8906V27.6719C11.3594 27.849 10.8333 28 10.1875 28.125C9.54167 28.25 8.86979 28.3125 8.17187 28.3125C7.19271 28.3125 6.3125 28.151 5.53125 27.8281C4.75 27.4948 4.13021 26.9271 3.67187 26.125C3.21354 25.3229 2.98437 24.2135 2.98437 22.7969V13.5H0.625V11.8594L3.15625 10.5625L4.35937 6.85938H6.67187V10.7031H11.625V13.5H6.67187V22.75C6.67187 23.625 6.89062 24.276 7.32812 24.7031C7.76562 25.1302 8.34375 25.3438 9.0625 25.3438Z" fill="white"/>
<path d="M18.3131 10.7031V28H14.6412V10.7031H18.3131ZM16.5006 4.07812C17.0631 4.07812 17.5475 4.22917 17.9537 4.53125C18.3704 4.83333 18.5787 5.35417 18.5787 6.09375C18.5787 6.82292 18.3704 7.34375 17.9537 7.65625C17.5475 7.95833 17.0631 8.10938 16.5006 8.10938C15.9173 8.10938 15.4225 7.95833 15.0162 7.65625C14.6204 7.34375 14.4225 6.82292 14.4225 6.09375C14.4225 5.35417 14.6204 4.83333 15.0162 4.53125C15.4225 4.22917 15.9173 4.07812 16.5006 4.07812Z" fill="white"/>
<path d="M29.9075 28.3125C28.2721 28.3125 26.8554 27.9948 25.6575 27.3594C24.4596 26.724 23.5377 25.75 22.8919 24.4375C22.246 23.125 21.9231 21.4583 21.9231 19.4375C21.9231 17.3333 22.2773 15.6146 22.9856 14.2812C23.694 12.9479 24.6731 11.9635 25.9231 11.3281C27.1835 10.6927 28.6262 10.375 30.2512 10.375C31.2825 10.375 32.2148 10.4792 33.0481 10.6875C33.8919 10.8854 34.6054 11.1302 35.1887 11.4219L34.095 14.3594C33.4596 14.099 32.8085 13.8802 32.1419 13.7031C31.4752 13.526 30.8346 13.4375 30.22 13.4375C29.2096 13.4375 28.3658 13.6615 27.6887 14.1094C27.0221 14.5573 26.5221 15.224 26.1887 16.1094C25.8658 16.9948 25.7044 18.0938 25.7044 19.4062C25.7044 20.6771 25.871 21.75 26.2044 22.625C26.5377 23.4896 27.0325 24.1458 27.6887 24.5938C28.345 25.0312 29.1523 25.25 30.1106 25.25C31.0585 25.25 31.9075 25.1354 32.6575 24.9062C33.4075 24.6771 34.1158 24.3802 34.7825 24.0156V27.2031C34.1262 27.5781 33.4231 27.8542 32.6731 28.0312C31.9231 28.2188 31.0012 28.3125 29.9075 28.3125Z" fill="white"/>
<path d="M41.8769 3.6875V15.4375C41.8769 15.9688 41.856 16.5521 41.8144 17.1875C41.7727 17.8125 41.731 18.401 41.6894 18.9531H41.7675C42.0383 18.5885 42.3612 18.1615 42.7362 17.6719C43.1217 17.1823 43.4862 16.7552 43.83 16.3906L49.1112 10.7031H53.33L46.4081 18.1406L53.7831 28H49.4706L43.9394 20.4062L41.8769 22.1719V28H38.205V3.6875H41.8769Z" fill="white"/>
<path d="M62.7994 10.375C64.341 10.375 65.664 10.6927 66.7681 11.3281C67.8723 11.9635 68.7212 12.8646 69.315 14.0312C69.9087 15.1979 70.2056 16.5938 70.2056 18.2188V20.1875H58.6587C58.7004 21.8646 59.1483 23.1562 60.0025 24.0625C60.8671 24.9688 62.0754 25.4219 63.6275 25.4219C64.7317 25.4219 65.7212 25.3177 66.5962 25.1094C67.4817 24.8906 68.3931 24.5729 69.3306 24.1562V27.1406C68.466 27.5469 67.5858 27.8438 66.69 28.0312C65.7942 28.2188 64.7212 28.3125 63.4712 28.3125C61.7733 28.3125 60.2785 27.9844 58.9869 27.3281C57.7056 26.6615 56.7004 25.6719 55.9712 24.3594C55.2525 23.0469 54.8931 21.4167 54.8931 19.4688C54.8931 17.5312 55.2212 15.8854 55.8775 14.5312C56.5337 13.1771 57.4556 12.1458 58.6431 11.4375C59.8306 10.7292 61.216 10.375 62.7994 10.375ZM62.7994 13.1406C61.6431 13.1406 60.7056 13.5156 59.9869 14.2656C59.2785 15.0156 58.8619 16.1146 58.7369 17.5625H66.6119C66.6015 16.6979 66.4556 15.9323 66.1744 15.2656C65.9035 14.599 65.4869 14.0781 64.9244 13.7031C64.3723 13.3281 63.664 13.1406 62.7994 13.1406Z" fill="white"/>
<path d="M80.1437 25.3438C80.6229 25.3438 81.0969 25.3021 81.5656 25.2188C82.0344 25.125 82.4614 25.0156 82.8469 24.8906V27.6719C82.4406 27.849 81.9146 28 81.2687 28.125C80.6229 28.25 79.951 28.3125 79.2531 28.3125C78.2739 28.3125 77.3937 28.151 76.6125 27.8281C75.8312 27.4948 75.2114 26.9271 74.7531 26.125C74.2948 25.3229 74.0656 24.2135 74.0656 22.7969V13.5H71.7062V11.8594L74.2375 10.5625L75.4406 6.85938H77.7531V10.7031H82.7062V13.5H77.7531V22.75C77.7531 23.625 77.9719 24.276 78.4094 24.7031C78.8469 25.1302 79.425 25.3438 80.1437 25.3438Z" fill="white"/>
<path d="M92.6131 10.375C94.1548 10.375 95.4777 10.6927 96.5819 11.3281C97.686 11.9635 98.535 12.8646 99.1287 14.0312C99.7225 15.1979 100.019 16.5938 100.019 18.2188V20.1875H88.4725C88.5142 21.8646 88.9621 23.1562 89.8162 24.0625C90.6808 24.9688 91.8892 25.4219 93.4412 25.4219C94.5454 25.4219 95.535 25.3177 96.41 25.1094C97.2954 24.8906 98.2069 24.5729 99.1444 24.1562V27.1406C98.2798 27.5469 97.3996 27.8438 96.5037 28.0312C95.6079 28.2188 94.535 28.3125 93.285 28.3125C91.5871 28.3125 90.0923 27.9844 88.8006 27.3281C87.5194 26.6615 86.5142 25.6719 85.785 24.3594C85.0662 23.0469 84.7069 21.4167 84.7069 19.4688C84.7069 17.5312 85.035 15.8854 85.6912 14.5312C86.3475 13.1771 87.2694 12.1458 88.4569 11.4375C89.6444 10.7292 91.0298 10.375 92.6131 10.375ZM92.6131 13.1406C91.4569 13.1406 90.5194 13.5156 89.8006 14.2656C89.0923 15.0156 88.6756 16.1146 88.5506 17.5625H96.4256C96.4152 16.6979 96.2694 15.9323 95.9881 15.2656C95.7173 14.599 95.3006 14.0781 94.7381 13.7031C94.186 13.3281 93.4777 13.1406 92.6131 13.1406Z" fill="white"/>
</svg>
