<svg width="24" height="24" viewBox="0 0 24 24" fill="none" xmlns="http://www.w3.org/2000/svg">
<path d="M19.5 3.75H4.5C4.10218 3.75 3.72064 3.90804 3.43934 4.18934C3.15804 4.47064 3 4.85218 3 5.25V10.7531C3 19.1344 10.1062 21.9188 11.5312 22.3875C11.8357 22.4877 12.1643 22.4877 12.4688 22.3875C13.8938 21.9188 21 19.1344 21 10.7531V5.25C21 4.85218 20.842 4.47064 20.5607 4.18934C20.2794 3.90804 19.8978 3.75 19.5 3.75ZM12 20.9625C10.8094 20.5688 5.22188 18.375 4.56563 12H12V5.25H19.5V10.7531C19.5023 11.1697 19.4803 11.586 19.4344 12H12V20.9625Z" fill="#1733B6"/>
</svg>
