<svg width="26" height="26" viewBox="0 0 26 26" fill="none" xmlns="http://www.w3.org/2000/svg">
<path d="M18.5 0.5H7.5C5.64348 0.5 3.86301 1.2375 2.55025 2.55025C1.2375 3.86301 0.5 5.64348 0.5 7.5V18.5C0.5 20.3565 1.2375 22.137 2.55025 23.4497C3.86301 24.7625 5.64348 25.5 7.5 25.5H18.5C20.3565 25.5 22.137 24.7625 23.4497 23.4497C24.7625 22.137 25.5 20.3565 25.5 18.5V7.5C25.5 5.64348 24.7625 3.86301 23.4497 2.55025C22.137 1.2375 20.3565 0.5 18.5 0.5ZM13 19C11.8133 19 10.6533 18.6481 9.66658 17.9888C8.67988 17.3295 7.91085 16.3925 7.45672 15.2961C7.0026 14.1997 6.88378 12.9933 7.11529 11.8295C7.3468 10.6656 7.91824 9.59647 8.75736 8.75736C9.59647 7.91824 10.6656 7.3468 11.8295 7.11529C12.9933 6.88378 14.1997 7.0026 15.2961 7.45672C16.3925 7.91085 17.3295 8.67988 17.9888 9.66658C18.6481 10.6533 19 11.8133 19 13C19 14.5913 18.3679 16.1174 17.2426 17.2426C16.1174 18.3679 14.5913 19 13 19ZM19.5 8C19.2033 8 18.9133 7.91203 18.6666 7.7472C18.42 7.58238 18.2277 7.34811 18.1142 7.07403C18.0007 6.79994 17.9709 6.49834 18.0288 6.20736C18.0867 5.91639 18.2296 5.64912 18.4393 5.43934C18.6491 5.22956 18.9164 5.0867 19.2074 5.02882C19.4983 4.97094 19.7999 5.00065 20.074 5.11418C20.3481 5.22771 20.5824 5.41997 20.7472 5.66665C20.912 5.91332 21 6.20333 21 6.5C21 6.89782 20.842 7.27936 20.5607 7.56066C20.2794 7.84196 19.8978 8 19.5 8Z" fill="#EBEBEB"/>
</svg>
