<svg width="28" height="24" viewBox="0 0 28 24" fill="none" xmlns="http://www.w3.org/2000/svg">
<path d="M27.7125 4.71262L23.9375 8.47512C23.1875 17.2126 15.8125 24.0001 6.99997 24.0001C5.18747 24.0001 3.68747 23.7126 2.54997 23.1501C1.63747 22.6876 1.26247 22.2001 1.16247 22.0501C1.07973 21.9244 1.02641 21.7817 1.0065 21.6326C0.986578 21.4835 1.00057 21.3318 1.04743 21.1888C1.09428 21.0458 1.1728 20.9152 1.27713 20.8068C1.38145 20.6984 1.5089 20.6149 1.64997 20.5626C1.67497 20.5501 4.62497 19.4251 6.53747 17.2626C5.35139 16.4181 4.30891 15.3883 3.44997 14.2126C1.73747 11.8876 -0.0750334 7.85012 1.01247 1.82512C1.04665 1.646 1.12858 1.47944 1.24959 1.34303C1.3706 1.20662 1.5262 1.10542 1.69997 1.05012C1.87428 0.993039 2.06094 0.985004 2.23952 1.02689C2.4181 1.06878 2.58171 1.15898 2.71247 1.28762C2.74997 1.33762 6.91247 5.43762 12 6.76262V6.00012C12.0049 5.20726 12.1659 4.42313 12.4739 3.6925C12.7818 2.96188 13.2307 2.29906 13.7948 1.74191C14.3589 1.18475 15.0272 0.74417 15.7616 0.445312C16.496 0.146455 17.2821 -0.0048227 18.075 0.000117191C19.1156 0.0149587 20.1346 0.299095 21.0328 0.824842C21.9309 1.35059 22.6776 2.10002 23.2 3.00012H27C27.1974 2.9995 27.3906 3.05733 27.5552 3.16633C27.7198 3.27533 27.8485 3.43062 27.925 3.61262C27.997 3.79733 28.0153 3.99866 27.9777 4.19333C27.9401 4.38799 27.8481 4.56803 27.7125 4.71262Z" fill="#EBEBEB"/>
</svg>
