<svg width="18" height="20" viewBox="0 0 18 20" fill="none" xmlns="http://www.w3.org/2000/svg">
<path d="M16.5 0.75H1.5C1.10218 0.75 0.720644 0.908035 0.43934 1.18934C0.158035 1.47064 0 1.85218 0 2.25V7.75312C0 16.1344 7.10625 18.9188 8.53125 19.3875C8.83572 19.4877 9.16428 19.4877 9.46875 19.3875C10.8938 18.9188 18 16.1344 18 7.75312V2.25C18 1.85218 17.842 1.47064 17.5607 1.18934C17.2794 0.908035 16.8978 0.75 16.5 0.75ZM9 17.9625C7.80937 17.5688 2.22188 15.375 1.56563 9H9V2.25H16.5V7.75312C16.5023 8.16967 16.4803 8.58599 16.4344 9H9V17.9625Z" fill="#1733B6"/>
</svg>
