<svg width="26" height="26" viewBox="0 0 26 26" fill="none" xmlns="http://www.w3.org/2000/svg">
<path d="M26 12.9999C25.9936 16.1761 24.8279 19.2406 22.722 21.6181C20.616 23.9957 17.7146 25.5227 14.5625 25.9124C14.4922 25.9194 14.4211 25.9116 14.3539 25.8898C14.2867 25.8679 14.2247 25.8324 14.1719 25.7854C14.1191 25.7385 14.0765 25.6811 14.047 25.6169C14.0174 25.5527 14.0014 25.4831 14 25.4124V15.9999H17C17.1368 16.0002 17.2721 15.9724 17.3977 15.9183C17.5233 15.8642 17.6364 15.7849 17.7302 15.6853C17.8239 15.5857 17.8962 15.468 17.9426 15.3394C17.989 15.2107 18.0085 15.0739 18 14.9374C17.9779 14.6789 17.8585 14.4383 17.6659 14.2643C17.4734 14.0903 17.222 13.9958 16.9625 13.9999H14V10.9999C14 10.4695 14.2107 9.96081 14.5858 9.58574C14.9609 9.21066 15.4696 8.99995 16 8.99995H18C18.1368 9.00022 18.2721 8.97243 18.3977 8.91831C18.5233 8.8642 18.6364 8.7849 18.7302 8.68532C18.8239 8.58573 18.8962 8.46799 18.9426 8.33935C18.989 8.21072 19.0085 8.07393 19 7.93745C18.9779 7.67887 18.8585 7.43831 18.6659 7.26431C18.4734 7.09032 18.222 6.99584 17.9625 6.99995H16C14.9391 6.99995 13.9217 7.42138 13.1716 8.17152C12.4214 8.92167 12 9.93908 12 10.9999V13.9999H9C8.86325 13.9997 8.7279 14.0275 8.60231 14.0816C8.47672 14.1357 8.36357 14.215 8.26985 14.3146C8.17612 14.4142 8.10382 14.5319 8.05741 14.6605C8.01099 14.7892 7.99146 14.926 8 15.0624C8.02212 15.321 8.14151 15.5616 8.33407 15.7356C8.52662 15.9096 8.77801 16.0041 9.0375 15.9999H12V25.4124C12.0004 25.4825 11.986 25.5519 11.9578 25.6161C11.9296 25.6803 11.8882 25.7378 11.8363 25.7849C11.7845 25.8321 11.7233 25.8678 11.6567 25.8898C11.5902 25.9117 11.5197 25.9195 11.45 25.9124C4.85 25.1124 -0.249998 19.3749 0.0125022 12.5124C0.159856 9.12343 1.62607 5.92624 4.09817 3.60333C6.57027 1.28042 9.85243 0.0158143 13.2441 0.0794379C16.6357 0.143061 19.8681 1.52988 22.2513 3.94387C24.6346 6.35785 25.9799 9.60778 26 12.9999Z" fill="#EBEBEB"/>
</svg>
