<svg width="19" height="19" viewBox="0 0 19 19" fill="none" xmlns="http://www.w3.org/2000/svg">
<path d="M17.75 8.91409L9.58597 0.75003C9.44145 0.604237 9.26306 0.496531 9.06674 0.436544C8.87042 0.376557 8.66229 0.366159 8.46097 0.40628L2.15628 1.67191C2.03673 1.69578 1.92693 1.75452 1.84073 1.84073C1.75452 1.92693 1.69578 2.03673 1.67191 2.15628L0.40628 8.46097C0.366159 8.66229 0.376557 8.87042 0.436544 9.06674C0.496531 9.26306 0.604237 9.44145 0.75003 9.58597L8.91409 17.75C9.0296 17.8667 9.1671 17.9594 9.31863 18.0226C9.47016 18.0858 9.63272 18.1183 9.79691 18.1183C9.96109 18.1183 10.1237 18.0858 10.2752 18.0226C10.4267 17.9594 10.5642 17.8667 10.6797 17.75L17.75 10.6797C17.8667 10.5642 17.9594 10.4267 18.0226 10.2752C18.0858 10.1237 18.1183 9.96109 18.1183 9.79691C18.1183 9.63272 18.0858 9.47016 18.0226 9.31863C17.9594 9.1671 17.8667 9.0296 17.75 8.91409ZM5.56253 6.50003C5.37711 6.50003 5.19586 6.44505 5.04168 6.34203C4.88751 6.23902 4.76735 6.0926 4.69639 5.9213C4.62544 5.74999 4.60687 5.56149 4.64304 5.37963C4.67922 5.19778 4.76851 5.03073 4.89962 4.89962C5.03073 4.76851 5.19778 4.67922 5.37963 4.64304C5.56149 4.60687 5.74999 4.62544 5.9213 4.69639C6.0926 4.76735 6.23902 4.88751 6.34203 5.04168C6.44505 5.19586 6.50003 5.37711 6.50003 5.56253C6.50003 5.81117 6.40126 6.04963 6.22544 6.22544C6.04963 6.40126 5.81117 6.50003 5.56253 6.50003Z" fill="#006642"/>
</svg>
