<svg width="28" height="26" viewBox="0 0 28 26" fill="none" xmlns="http://www.w3.org/2000/svg">
<path d="M26.8125 20.7253C27.5806 19.2916 27.9874 17.6923 27.9977 16.0658C28.0079 14.4394 27.6213 12.8351 26.8714 11.3918C26.1215 9.94861 25.0308 8.71008 23.694 7.78364C22.3572 6.85719 20.8146 6.27079 19.2 6.07527C18.6684 4.83531 17.8913 3.71575 16.9157 2.78398C15.94 1.85221 14.7859 1.1275 13.5228 0.653472C12.2597 0.179443 10.9137 -0.0340999 9.56593 0.0256971C8.21813 0.0854942 6.89638 0.417395 5.68022 1.00142C4.46406 1.58545 3.37866 2.40952 2.48934 3.42403C1.60002 4.43854 0.925183 5.62252 0.505446 6.90468C0.0857098 8.18684 -0.0702447 9.54068 0.0469709 10.8847C0.164186 12.2287 0.552148 13.5351 1.1875 14.7253L0.412502 17.4253C0.322677 17.7256 0.315783 18.0447 0.392549 18.3486C0.469315 18.6525 0.626882 18.93 0.84855 19.1517C1.07022 19.3734 1.34773 19.531 1.65167 19.6077C1.95561 19.6845 2.27466 19.6776 2.575 19.5878L5.275 18.8128C6.37156 19.3973 7.56657 19.7744 8.8 19.9253C9.34482 21.2021 10.1495 22.3515 11.1629 23.3004C12.1762 24.2492 13.376 24.9766 14.6859 25.4364C15.9958 25.8961 17.387 26.0781 18.7711 25.9707C20.1551 25.8634 21.5017 25.469 22.725 24.8128L25.425 25.5878C25.7253 25.6776 26.0444 25.6845 26.3483 25.6077C26.6523 25.531 26.9298 25.3734 27.1515 25.1517C27.3731 24.93 27.5307 24.6525 27.6075 24.3486C27.6842 24.0447 27.6773 23.7256 27.5875 23.4253L26.8125 20.7253ZM24.8875 20.0878C24.8147 20.2015 24.7671 20.3295 24.7477 20.4631C24.7283 20.5968 24.7376 20.733 24.775 20.8628L25.55 23.5503L22.8625 22.7753C22.7327 22.7379 22.5965 22.7285 22.4629 22.7479C22.3292 22.7673 22.2013 22.815 22.0875 22.8878C21.1711 23.4285 20.1564 23.7815 19.1024 23.9264C18.0483 24.0713 16.9759 24.0052 15.9477 23.7318C14.9194 23.4585 13.9558 22.9834 13.1128 22.3342C12.2698 21.685 11.5644 20.8746 11.0375 19.9503C13.4952 19.6883 15.7695 18.5277 17.4237 16.6912C19.078 14.8547 19.9954 12.4719 20 10.0003C19.9972 9.40088 19.9428 8.80284 19.8375 8.21277C21.5918 8.62677 23.1549 9.62109 24.2734 11.0345C25.3919 12.448 26.0003 14.1978 26 16.0003C25.9983 17.4373 25.6144 18.8481 24.8875 20.0878Z" fill="#7F2D0F"/>
</svg>
