<svg width="24" height="24" viewBox="0 0 24 24" fill="none" xmlns="http://www.w3.org/2000/svg">
<path d="M12 0.625C9.75024 0.625 7.551 1.29213 5.68039 2.54203C3.80978 3.79193 2.35182 5.56847 1.49088 7.64698C0.629929 9.72548 0.404666 12.0126 0.843573 14.2192C1.28248 16.4257 2.36584 18.4525 3.95667 20.0433C5.54749 21.6342 7.57432 22.7175 9.78085 23.1564C11.9874 23.5953 14.2745 23.3701 16.353 22.5091C18.4315 21.6482 20.2081 20.1902 21.458 18.3196C22.7079 16.449 23.375 14.2498 23.375 12C23.3692 8.98494 22.1689 6.09502 20.037 3.96305C17.905 1.83107 15.0151 0.630782 12 0.625ZM14.3406 15.2922C14.5117 15.4489 14.6136 15.6671 14.6239 15.8988C14.6341 16.1306 14.5519 16.357 14.3953 16.5281C14.3138 16.6182 14.2142 16.6901 14.103 16.7391C13.9918 16.7881 13.8715 16.8131 13.75 16.8125C13.5317 16.8104 13.3217 16.7287 13.1594 16.5828L8.78438 12.6453C8.69486 12.5633 8.62337 12.4636 8.57447 12.3525C8.52556 12.2414 8.50031 12.1214 8.50031 12C8.50031 11.8786 8.52556 11.7586 8.57447 11.6475C8.62337 11.5364 8.69486 11.4367 8.78438 11.3547L13.1594 7.41719C13.2436 7.33669 13.343 7.27382 13.4519 7.23226C13.5607 7.19071 13.6768 7.17131 13.7932 7.1752C13.9096 7.17909 14.0241 7.20619 14.1299 7.25491C14.2358 7.30364 14.3308 7.37301 14.4094 7.45895C14.4881 7.54489 14.5488 7.64567 14.588 7.75538C14.6272 7.86509 14.6441 7.98152 14.6377 8.09785C14.6312 8.21417 14.6017 8.32805 14.5507 8.43279C14.4997 8.53753 14.4283 8.63103 14.3406 8.70781L10.6875 12L14.3406 15.2922Z" fill="#474747"/>
</svg>
