<svg width="22" height="22" viewBox="0 0 22 22" fill="none" xmlns="http://www.w3.org/2000/svg">
<path d="M20.1781 8.6375C19.8219 8.27188 19.4562 7.8875 19.3156 7.55938C19.175 7.23125 19.1844 6.74375 19.175 6.24688C19.1656 5.3375 19.1469 4.29688 18.425 3.575C17.7031 2.85312 16.6625 2.83437 15.7531 2.825C15.2562 2.81562 14.75 2.80625 14.4406 2.68437C14.1312 2.5625 13.7281 2.17813 13.3625 1.82188C12.7156 1.20313 11.975 0.5 11 0.5C10.025 0.5 9.28438 1.20313 8.6375 1.82188C8.27188 2.17813 7.8875 2.54375 7.55938 2.68437C7.23125 2.825 6.74375 2.81562 6.24688 2.825C5.3375 2.83437 4.29688 2.85312 3.575 3.575C2.85312 4.29688 2.83437 5.3375 2.825 6.24688C2.81562 6.74375 2.80625 7.25 2.68437 7.55938C2.5625 7.86875 2.17813 8.27188 1.82188 8.6375C1.20313 9.28438 0.5 10.025 0.5 11C0.5 11.975 1.20313 12.7156 1.82188 13.3625C2.17813 13.7281 2.54375 14.1125 2.68437 14.4406C2.825 14.7687 2.81562 15.2562 2.825 15.7531C2.83437 16.6625 2.85312 17.7031 3.575 18.425C4.29688 19.1469 5.3375 19.1656 6.24688 19.175C6.74375 19.1844 7.25 19.1938 7.55938 19.3156C7.86875 19.4375 8.27188 19.8219 8.6375 20.1781C9.28438 20.7969 10.025 21.5 11 21.5C11.975 21.5 12.7156 20.7969 13.3625 20.1781C13.7281 19.8219 14.1125 19.4562 14.4406 19.3156C14.7687 19.175 15.2562 19.1844 15.7531 19.175C16.6625 19.1656 17.7031 19.1469 18.425 18.425C19.1469 17.7031 19.1656 16.6625 19.175 15.7531C19.1844 15.2562 19.1938 14.75 19.3156 14.4406C19.4375 14.1312 19.8219 13.7281 20.1781 13.3625C20.7969 12.7156 21.5 11.975 21.5 11C21.5 10.025 20.7969 9.28438 20.1781 8.6375ZM15.6406 9.29375L10.1469 14.5438C10.0048 14.6774 9.81686 14.7512 9.62188 14.75C9.42976 14.7507 9.24487 14.6768 9.10625 14.5438L6.35938 11.9188C6.28319 11.8523 6.22123 11.7711 6.17722 11.6801C6.1332 11.589 6.10805 11.49 6.10328 11.389C6.0985 11.2881 6.11419 11.1871 6.14941 11.0924C6.18463 10.9976 6.23865 10.9109 6.30822 10.8375C6.37779 10.7642 6.46148 10.7056 6.55426 10.6654C6.64703 10.6252 6.74697 10.6042 6.84808 10.6036C6.94919 10.603 7.04937 10.6229 7.14261 10.662C7.23584 10.7011 7.32021 10.7587 7.39062 10.8312L9.62188 12.9594L14.6094 8.20625C14.7552 8.07902 14.9446 8.01309 15.1379 8.02223C15.3312 8.03138 15.5135 8.1149 15.6467 8.25533C15.7798 8.39576 15.8535 8.58222 15.8524 8.77575C15.8513 8.96928 15.7754 9.15488 15.6406 9.29375Z" fill="#008253"/>
</svg>
