<svg width="16" height="17" viewBox="0 0 16 17" fill="none" xmlns="http://www.w3.org/2000/svg">
<path d="M14.25 0.625031H1.75C1.41848 0.625031 1.10054 0.756727 0.866116 0.991147C0.631696 1.22557 0.5 1.54351 0.5 1.87503V6.46097C0.5 13.4453 6.42188 15.7657 7.60938 16.1563C7.8631 16.2398 8.1369 16.2398 8.39062 16.1563C9.57812 15.7657 15.5 13.4453 15.5 6.46097V1.87503C15.5 1.54351 15.3683 1.22557 15.1339 0.991147C14.8995 0.756727 14.5815 0.625031 14.25 0.625031ZM8 14.9688C7.00781 14.6407 2.35156 12.8125 1.80469 7.50003H8V1.87503H14.25V6.46097C14.2519 6.80809 14.2336 7.15503 14.1953 7.50003H8V14.9688Z" fill="white"/>
</svg>
